<svg width="193" height="115" viewBox="0 0 193 115" fill="none" xmlns="http://www.w3.org/2000/svg">
<g clip-path="url(#clip0_9_9)">
<path d="M100 37.5V37.1605C100.01 35.0524 99.4603 32.9794 98.406 31.1538C97.3517 29.3283 95.8311 27.8157 94 26.7711H94.176L58.176 5.54448C56.3385 4.53134 54.2743 4 52.176 4C50.0777 4 48.0135 4.53134 46.176 5.54448L10.176 26.7711C6.36267 28.8671 4 32.8405 4 37.1551V76.0085C4.00709 78.1341 4.58373 80.219 5.6699 82.0461C6.75607 83.8733 8.31208 85.376 10.176 86.3978L46.176 109.171C47.9609 110.151 49.964 110.664 52 110.664C54.036 110.664 56.0391 110.151 57.824 109.171L93.824 86.3978C97.6373 84.3018 100 80.3231 100 76.0085V75.5" stroke="#6B5235" stroke-width="8" stroke-linejoin="round"/>
<path d="M93.5 37.5C93.5 36.5 93.1318 35.584 92.6051 34.6753C91.6826 33.0836 90.3521 31.7649 88.7499 30.8541H88.9039L57.4039 12.3466C55.7961 11.4633 53.99 11 52.1539 11C50.3179 11 48.5118 11.4633 46.9039 12.3466L15.404 30.8541C12.0673 32.6816 10 36.1459 10 39.9079V73.7839C10.0062 75.6373 10.5108 77.4551 11.4612 79.0482C12.4116 80.6413 13.7731 81.9514 15.404 82.8424L46.9039 102.698C48.4657 103.552 50.2185 104 51.9999 104C53.7814 104 55.5341 103.552 57.0959 102.698L88.5959 82.8424C91.5443 81.2275 94 78.6399 94 75.5" stroke="#BEA87B" stroke-width="7" stroke-linejoin="round"/>
<path d="M78.008 69V46.6H87.224C89.208 46.6 90.904 46.92 92.312 47.56C93.7413 48.2 94.84 49.1173 95.608 50.312C96.376 51.5067 96.76 52.9253 96.76 54.568C96.76 56.2107 96.376 57.6293 95.608 58.824C94.84 59.9973 93.7413 60.904 92.312 61.544C90.904 62.1627 89.208 62.472 87.224 62.472H80.312L82.168 60.584V69H78.008ZM92.664 69L87 60.872H91.448L97.144 69H92.664ZM82.168 61.032L80.312 59.048H87.032C88.8667 59.048 90.2427 58.6533 91.16 57.864C92.0987 57.0747 92.568 55.976 92.568 54.568C92.568 53.1387 92.0987 52.04 91.16 51.272C90.2427 50.504 88.8667 50.12 87.032 50.12H80.312L82.168 48.072V61.032ZM98.2462 69L108.326 46.6H112.422L122.534 69H118.182L109.51 48.808H111.174L102.534 69H98.2462ZM102.886 63.816L104.006 60.552H116.102L117.222 63.816H102.886ZM129.191 56.904H140.359V60.424H129.191V56.904ZM129.543 69H125.383V46.6H141.735V50.088H129.543V69ZM150.458 69V50.12H143.034V46.6H162.042V50.12H154.618V69H150.458Z" fill="white"/>
<path d="M54.752 80.64C51.3387 80.64 48.16 80.0853 45.216 78.976C42.3147 77.824 39.776 76.224 37.6 74.176C35.4667 72.0853 33.8027 69.632 32.608 66.816C31.4133 64 30.816 60.928 30.816 57.6C30.816 54.272 31.4133 51.2 32.608 48.384C33.8027 45.568 35.488 43.136 37.664 41.088C39.84 38.9973 42.3787 37.3973 45.28 36.288C48.1813 35.136 51.36 34.56 54.816 34.56C58.4853 34.56 61.8347 35.2 64.864 36.48C67.8933 37.7173 70.4533 39.5733 72.544 42.048L67.168 47.104C65.5467 45.3547 63.7333 44.0533 61.728 43.2C59.7227 42.304 57.5467 41.856 55.2 41.856C52.8533 41.856 50.6987 42.24 48.736 43.008C46.816 43.776 45.1307 44.864 43.68 46.272C42.272 47.68 41.1627 49.344 40.352 51.264C39.584 53.184 39.2 55.296 39.2 57.6C39.2 59.904 39.584 62.016 40.352 63.936C41.1627 65.856 42.272 67.52 43.68 68.928C45.1307 70.336 46.816 71.424 48.736 72.192C50.6987 72.96 52.8533 73.344 55.2 73.344C57.5467 73.344 59.7227 72.9173 61.728 72.064C63.7333 71.168 65.5467 69.824 67.168 68.032L72.544 73.152C70.4533 75.584 67.8933 77.44 64.864 78.72C61.8347 80 58.464 80.64 54.752 80.64Z" fill="white"/>
<path d="M183.25 38C183.253 38.3589 183.144 38.7097 182.938 39.0038C182.732 39.2978 182.44 39.5204 182.102 39.6406L175.163 42.1639L172.641 49.1016C172.516 49.4365 172.292 49.7253 171.999 49.9293C171.706 50.1333 171.357 50.2426 171 50.2426C170.643 50.2426 170.294 50.1333 170.001 49.9293C169.707 49.7253 169.484 49.4365 169.359 49.1016L166.837 42.1628L159.898 39.6406C159.564 39.5163 159.275 39.2925 159.071 38.9992C158.867 38.7059 158.757 38.3572 158.757 38C158.757 37.6428 158.867 37.2941 159.071 37.0008C159.275 36.7075 159.564 36.4837 159.898 36.3594L166.837 33.8372L169.359 26.8984C169.484 26.5635 169.707 26.2747 170.001 26.0707C170.294 25.8667 170.643 25.7574 171 25.7574C171.357 25.7574 171.706 25.8667 171.999 26.0707C172.292 26.2747 172.516 26.5635 172.641 26.8984L175.164 33.8372L182.102 36.3594C182.44 36.4796 182.732 36.7022 182.938 36.9962C183.144 37.2903 183.253 37.6411 183.25 38Z" fill="#BEA87B"/>
<path d="M192.812 56.5C192.814 56.7435 192.74 56.9816 192.601 57.1811C192.461 57.3807 192.263 57.5317 192.033 57.6133L187.325 59.3255L185.613 64.0332C185.529 64.2605 185.377 64.4565 185.178 64.5949C184.979 64.7333 184.742 64.8075 184.5 64.8075C184.258 64.8075 184.021 64.7333 183.822 64.5949C183.623 64.4565 183.471 64.2605 183.387 64.0332L181.675 59.3248L176.967 57.6133C176.74 57.5289 176.544 57.377 176.405 57.178C176.267 56.979 176.193 56.7424 176.193 56.5C176.193 56.2576 176.267 56.021 176.405 55.822C176.544 55.623 176.74 55.4711 176.967 55.3867L181.675 53.6752L183.387 48.9668C183.471 48.7395 183.623 48.5435 183.822 48.4051C184.021 48.2667 184.258 48.1925 184.5 48.1925C184.742 48.1925 184.979 48.2667 185.178 48.4051C185.377 48.5435 185.529 48.7395 185.613 48.9668L187.325 53.6752L192.033 55.3867C192.263 55.4683 192.461 55.6194 192.601 55.8189C192.74 56.0184 192.814 56.2565 192.812 56.5Z" fill="#BEA87B"/>
<path d="M125.168 93L117.84 75.912H122L128.304 90.984H126.256L132.784 75.912H136.624L129.296 93H125.168ZM146.356 93.224C144.905 93.224 143.625 92.9573 142.516 92.424C141.407 91.8693 140.543 91.0373 139.924 89.928C139.305 88.7973 138.996 87.3787 138.996 85.672V75.912H142.996V85.128C142.996 86.664 143.337 87.816 144.02 88.584C144.724 89.3307 145.716 89.704 146.996 89.704C147.935 89.704 148.745 89.512 149.428 89.128C150.132 88.744 150.676 88.168 151.06 87.4C151.465 86.632 151.668 85.6827 151.668 84.552V75.912H155.668V93H151.86V88.392L152.532 89.8C151.956 90.9093 151.113 91.7627 150.004 92.36C148.895 92.936 147.679 93.224 146.356 93.224ZM168.937 93.224C167.039 93.224 165.375 92.8507 163.945 92.104C162.537 91.336 161.439 90.2907 160.649 88.968C159.881 87.6453 159.497 86.1413 159.497 84.456C159.497 82.7493 159.871 81.2453 160.617 79.944C161.385 78.6213 162.431 77.5867 163.753 76.84C165.097 76.0933 166.623 75.72 168.329 75.72C169.993 75.72 171.476 76.0827 172.777 76.808C174.079 77.5333 175.103 78.5573 175.849 79.88C176.596 81.2027 176.969 82.76 176.969 84.552C176.969 84.7227 176.959 84.9147 176.937 85.128C176.937 85.3413 176.927 85.544 176.905 85.736H162.665V83.08H174.793L173.225 83.912C173.247 82.9307 173.044 82.0667 172.617 81.32C172.191 80.5733 171.604 79.9867 170.857 79.56C170.132 79.1333 169.289 78.92 168.329 78.92C167.348 78.92 166.484 79.1333 165.737 79.56C165.012 79.9867 164.436 80.584 164.009 81.352C163.604 82.0987 163.401 82.984 163.401 84.008V84.648C163.401 85.672 163.636 86.5787 164.105 87.368C164.575 88.1573 165.236 88.7653 166.089 89.192C166.943 89.6187 167.924 89.832 169.033 89.832C169.993 89.832 170.857 89.6827 171.625 89.384C172.393 89.0853 173.076 88.616 173.673 87.976L175.817 90.44C175.049 91.336 174.079 92.0293 172.905 92.52C171.753 92.9893 170.431 93.224 168.937 93.224Z" fill="#BEA87B"/>
</g>
<defs>
<clipPath id="clip0_9_9">
<rect width="193" height="115" fill="white"/>
</clipPath>
</defs>
</svg>
