<svg width="102" height="112" viewBox="0 0 102 112" fill="none" xmlns="http://www.w3.org/2000/svg">
<g clip-path="url(#clip0_8_2)">
<path d="M52.08 77.6C48.88 77.6 45.9 77.08 43.14 76.04C40.42 74.96 38.04 73.46 36 71.54C34 69.58 32.44 67.28 31.32 64.64C30.2 62 29.64 59.12 29.64 56C29.64 52.88 30.2 50 31.32 47.36C32.44 44.72 34.02 42.44 36.06 40.52C38.1 38.56 40.48 37.06 43.2 36.02C45.92 34.94 48.9 34.4 52.14 34.4C55.58 34.4 58.72 35 61.56 36.2C64.4 37.36 66.8 39.1 68.76 41.42L63.72 46.16C62.2 44.52 60.5 43.3 58.62 42.5C56.74 41.66 54.7 41.24 52.5 41.24C50.3 41.24 48.28 41.6 46.44 42.32C44.64 43.04 43.06 44.06 41.7 45.38C40.38 46.7 39.34 48.26 38.58 50.06C37.86 51.86 37.5 53.84 37.5 56C37.5 58.16 37.86 60.14 38.58 61.94C39.34 63.74 40.38 65.3 41.7 66.62C43.06 67.94 44.64 68.96 46.44 69.68C48.28 70.4 50.3 70.76 52.5 70.76C54.7 70.76 56.74 70.36 58.62 69.56C60.5 68.72 62.2 67.46 63.72 65.78L68.76 70.58C66.8 72.86 64.4 74.6 61.56 75.8C58.72 77 55.56 77.6 52.08 77.6Z" fill="white"/>
<path d="M91.2499 26.7754C93.0047 27.7744 94.4619 29.2207 95.4723 30.9665C96.4826 32.7122 97.0098 34.6946 96.9999 36.7105V73.8598C96.9999 77.9858 94.7356 81.7905 91.0812 83.7949L56.5813 105.572C54.8707 106.509 52.9511 107 50.9999 107C49.0488 107 47.1292 106.509 45.4186 105.572L10.9187 83.7949C9.1324 82.8177 7.64123 81.3807 6.60032 79.6335C5.5594 77.8862 5.0068 75.8925 5 73.8598V36.7054C5 32.5794 7.26422 28.7798 10.9187 26.7754L45.4186 6.47694C47.1796 5.50811 49.1577 5 51.1686 5C53.1795 5 55.1576 5.50811 56.9186 6.47694L91.4185 26.7754H91.2499Z" stroke="#6B5235" stroke-width="10" stroke-linecap="round" stroke-linejoin="round"/>
<path d="M84.2809 31.288C85.7515 32.1269 86.9727 33.3417 87.8195 34.8078C88.6662 36.274 89.108 37.9388 89.0996 39.6319V70.8315C89.0996 74.2967 87.2021 77.4921 84.1395 79.1754L55.2272 97.4652C53.7937 98.2518 52.1849 98.6641 50.5498 98.6641C48.9147 98.6641 47.3059 98.2518 45.8724 97.4652L16.9601 79.1754C15.4631 78.3548 14.2135 77.1479 13.3411 75.6805C12.4688 74.2131 12.0057 72.5387 12 70.8315V39.6276C12 36.1624 13.8975 32.9713 16.9601 31.288L45.8724 14.2404C47.3482 13.4267 49.006 13 50.6912 13C52.3764 13 54.0341 13.4267 55.5099 14.2404L84.4222 31.288H84.2809Z" stroke="#BEA87B" stroke-width="9" stroke-linecap="round" stroke-linejoin="round"/>
</g>
<defs>
<clipPath id="clip0_8_2">
<rect width="102" height="112" fill="white"/>
</clipPath>
</defs>
</svg>
